<svg width="512" height="512" viewBox="0 0 512 512" fill="none" xmlns="http://www.w3.org/2000/svg">
  <rect width="512" height="512" rx="120" fill="#1565C0"/>
  <path d="M360 256C360 313.438 313.438 360 256 360C198.562 360 152 313.438 152 256C152 198.562 198.562 152 256 152C284.719 152 310.719 163.625 329.5 182.5L372 140C342.25 110.25 301.25 92 256 92C165.438 92 92 165.438 92 256C92 346.562 165.438 420 256 420C346.562 420 420 346.562 420 256H360Z" fill="white"/>
  <path d="M420 256L370 210L360 256L370 302L420 256Z" fill="#42A5F5"/>
  <circle cx="420" cy="256" r="24" fill="white"/>
  <path d="M420 232L426 250H444L430 260L435 278L420 268L405 278L410 260L396 250H414L420 232Z" fill="#1565C0"/>
</svg>
